<?xml version="1.0"?>
<svg xmlns="http://www.w3.org/2000/svg" xmlns:xlink="http://www.w3.org/1999/xlink" version="1.1" id="Capa_1" x="0px" y="0px" width="512px" height="512px" viewBox="0 0 28.621 28.621" style="enable-background:new 0 0 28.621 28.621;" xml:space="preserve" class=""><g><g>
	<path d="M14.311,0c-6.904,0-12.5,5.596-12.5,12.5c0,4.723,2.618,8.828,6.48,10.955l-0.147,5.166l5.898-3.635   C14.131,24.988,14.22,25,14.311,25c6.904,0,12.5-5.596,12.5-12.5C26.811,5.596,21.215,0,14.311,0z M15.903,19.784h-3.203V9.474   h3.203V19.784z M14.28,8.211c-1.013,0-1.687-0.718-1.665-1.604c-0.021-0.927,0.652-1.624,1.686-1.624   c1.033,0,1.689,0.697,1.71,1.624C16.01,7.493,15.332,8.211,14.28,8.211z" data-original="#000000" class="active-path" data-old_color="#fc0e26" fill="#fc0e26"/>
</g></g> </svg>
