<?xml version="1.0"?>
<svg xmlns="http://www.w3.org/2000/svg" xmlns:xlink="http://www.w3.org/1999/xlink" version="1.1" id="Capa_1" x="0px" y="0px" viewBox="0 0 339.75 339.75" style="enable-background:new 0 0 339.75 339.75;" xml:space="preserve" width="512px" height="512px" class=""><g><g>
	<g>
		<path d="M215.875,169.75l114,114c13,13,13,33,0,46c-6,6-15,10-23,10s-17-4-23-10l-114-114l-114,114    c-6,6-15,10-23,10s-17-4-23-10c-13-13-13-33,0-46l114-114l-114-114c-13-13-13-33,0-46s33-13,46,0l114,114l114-114    c13-13,33-13,46,0s13,33,0,46L215.875,169.75z" data-original="#000000" class="active-path" data-old_color="#ffffff" fill="#ffffff"/>
	</g>
</g></g> </svg>
