<?xml version="1.0"?>
<svg xmlns="http://www.w3.org/2000/svg" xmlns:xlink="http://www.w3.org/1999/xlink" version="1.1" id="Capa_1" x="0px" y="0px" viewBox="0 0 511.999 511.999" style="enable-background:new 0 0 511.999 511.999;" xml:space="preserve" width="512px" height="512px" class=""><g><g>
	<g>
		<path d="M511.939,290.309c-0.638-11.441-6.282-21.92-15.485-28.748c-13.552-10.054-31.877-10.003-45.294-0.391    c-18.052-16.136-38.825-28.319-61.223-36.11c0-0.024,0.004-0.048,0.004-0.073v-50.513l40.783-30.763    c2.505-1.89,3.978-4.846,3.978-7.982V95.949c13.475-4.3,23.263-16.935,23.263-31.816c0-18.411-14.979-33.391-33.391-33.391    s-33.391,14.979-33.391,33.391c0,14.977,9.912,27.682,23.521,31.9v34.715l-40.783,30.762c-2.505,1.89-3.978,4.846-3.978,7.982    v49.877c-9.867-2.201-19.969-3.583-30.223-4.12v-81.254c0-5.522-4.477-9.999-9.999-9.999c-5.523,0-9.999,4.478-9.999,9.999v81.284    c-10.04,0.555-19.931,1.931-29.636,4.104v-49.892c0-3.138-1.473-6.094-3.978-7.982l-40.783-30.762V96.034    c13.609-4.219,23.521-16.924,23.521-31.901c0-18.411-14.979-33.391-33.391-33.391s-33.391,14.979-33.391,33.391    c0,14.882,9.788,27.517,23.263,31.816v39.783c0,3.138,1.473,6.094,3.978,7.982l40.783,30.762v50.513    c0,0.033,0.005,0.065,0.005,0.098c-4.613,1.612-9.174,3.409-13.677,5.403c-22.029,9.752-41.625,23.579-58.276,41.092    c-7.314,1.634-14.406,4.354-20.995,8.147l-72.9,41.973L89.023,306.48c-5.875-5.874-13.684-9.108-21.991-9.108    s-16.117,3.235-21.991,9.108L9.109,342.411C3.235,348.285,0,356.094,0,364.401c0,8.307,3.235,16.117,9.108,21.991l116.493,116.493    c5.875,5.874,13.684,9.108,21.991,9.108s16.117-3.235,21.991-9.108l35.932-35.932c12.125-12.126,12.125-31.855,0-43.981    l-86.628-86.627l68.234-39.287c13.134-7.562,28.981-9.354,43.472-4.918l102.357,31.342c7.64,2.34,12.609,9.809,11.815,17.76    c-0.863,8.638-8.06,15.152-16.741,15.152h-69.712c-5.523,0-9.999,4.478-9.999,9.999s4.477,9.999,9.999,9.999l93.989,0.07    c2.529,0,4.964-0.958,6.814-2.682l101.838-94.843c6.516-6.068,16.435-6.62,23.583-1.316c4.418,3.277,7.126,8.307,7.433,13.8    c0.307,5.493-1.828,10.792-5.854,14.541L367.72,416.183c-8.167,7.602-18.809,11.789-29.967,11.789H284    c-5.523,0-9.999,4.478-9.999,9.999c0,5.522,4.477,9.999,9.999,9.999h53.754c16.23,0,31.711-6.091,43.593-17.15l118.398-110.22    C508.132,312.794,512.577,301.752,511.939,290.309z M411.18,64.133c0-7.384,6.008-13.393,13.393-13.393    c7.384,0,13.393,6.008,13.393,13.393s-6.007,13.393-13.393,13.393S411.18,71.517,411.18,64.133z M235.456,77.526    c-7.385,0-13.393-6.008-13.393-13.393s6.008-13.393,13.393-13.393c7.384,0,13.393,6.008,13.393,13.393    S242.84,77.526,235.456,77.526z M191.374,437.114c4.329,4.328,4.329,11.371,0,15.699l-35.932,35.932    c-2.097,2.098-4.885,3.252-7.849,3.252s-5.753-1.154-7.849-3.252L23.25,372.252c-2.097-2.097-3.252-4.885-3.252-7.85    c0-2.965,1.155-5.753,3.252-7.849l35.932-35.932c2.097-2.098,4.885-3.252,7.849-3.252c2.965,0,5.753,1.154,7.849,3.252    L191.374,437.114z M364.807,341.155c0.713-16.611-9.945-31.877-26-36.793L236.451,273.02c-2.744-0.84-5.525-1.5-8.324-2.014    c28.696-23.358,64.149-36.018,101.889-36.018c39.386,0,76.723,14.025,106.193,39.671L364.807,341.155z" data-original="#b6b6b6" class="active-path" data-old_color=" rgb(0, 0, 0)" fill="#b6b6b6"/>
	</g>
</g><g>
	<g>
		<path d="M250.72,430.902c-1.86-1.86-4.44-2.93-7.069-2.93c-2.64,0-5.21,1.069-7.079,2.93c-1.86,1.86-2.92,4.44-2.92,7.069    c0,2.63,1.06,5.21,2.92,7.068c1.87,1.86,4.44,2.931,7.079,2.931c2.63,0,5.21-1.07,7.069-2.931c1.86-1.859,2.93-4.439,2.93-7.068    C253.65,435.341,252.58,432.762,250.72,430.902z" data-original="#b6b6b6" class="active-path" data-old_color=" rgb(0, 0, 0)" fill="#b6b6b6"/>
	</g>
</g><g>
	<g>
		<path d="M336.793,91.93c-1.86-1.86-4.44-2.93-7.069-2.93c-2.64,0-5.209,1.07-7.079,2.93c-1.86,1.86-2.92,4.44-2.92,7.069    c0,2.63,1.06,5.21,2.92,7.068c1.87,1.86,4.44,2.931,7.079,2.931c2.63,0,5.21-1.07,7.069-2.931c1.86-1.859,2.93-4.439,2.93-7.068    C339.723,96.369,338.653,93.789,336.793,91.93z" data-original="#b6b6b6" class="active-path" data-old_color=" rgb(0, 0, 0)" fill="#b6b6b6"/>
	</g>
</g><g>
	<g>
		<path d="M158.628,440.901c-1.86-1.86-4.44-2.93-7.069-2.93c-2.63,0-5.21,1.069-7.069,2.93c-1.86,1.86-2.93,4.44-2.93,7.069    c0,2.63,1.07,5.21,2.93,7.068c1.86,1.861,4.44,2.931,7.069,2.931c2.63,0,5.21-1.07,7.069-2.931c1.86-1.859,2.93-4.439,2.93-7.068    C161.558,445.341,160.488,442.761,158.628,440.901z" data-original="#b6b6b6" class="active-path" data-old_color=" rgb(0, 0, 0)" fill="#b6b6b6"/>
	</g>
</g><g>
	<g>
		<path d="M329.721,0.005c-20.951,0-37.997,17.046-37.997,37.997s17.045,37.997,37.997,37.997c20.951,0,37.997-17.046,37.997-37.997    S350.672,0.005,329.721,0.005z M329.721,56.001c-9.924,0-17.999-8.074-17.999-17.999s8.073-17.999,17.999-17.999    c9.924,0,17.999,8.074,17.999,17.999S339.645,56.001,329.721,56.001z" data-original="#b6b6b6" class="active-path" data-old_color=" rgb(0, 0, 0)" fill="#b6b6b6"/>
	</g>
</g><g>
	<g>
		<path d="M162.94,109.378h-6.858c-5.523,0-9.999,4.478-9.999,9.999s4.477,9.999,9.999,9.999h6.858c5.523,0,9.999-4.478,9.999-9.999    S168.462,109.378,162.94,109.378z" data-original="#b6b6b6" class="active-path" data-old_color=" rgb(0, 0, 0)" fill="#b6b6b6"/>
	</g>
</g><g>
	<g>
		<path d="M114.424,109.378h-6.858c-5.523,0-9.999,4.478-9.999,9.999s4.477,9.999,9.999,9.999h6.858    c5.523,0,9.999-4.478,9.999-9.999S119.946,109.378,114.424,109.378z" data-original="#b6b6b6" class="active-path" data-old_color=" rgb(0, 0, 0)" fill="#b6b6b6"/>
	</g>
</g><g>
	<g>
		<path d="M135.253,130.208c-5.523,0-9.999,4.478-9.999,9.999v6.858c0,5.522,4.477,9.999,9.999,9.999    c5.523,0,9.999-4.478,9.999-9.999v-6.858C145.252,134.685,140.775,130.208,135.253,130.208z" data-original="#b6b6b6" class="active-path" data-old_color=" rgb(0, 0, 0)" fill="#b6b6b6"/>
	</g>
</g><g>
	<g>
		<path d="M135.253,81.69c-5.523,0-9.999,4.478-9.999,9.999v6.858c0,5.522,4.477,9.999,9.999,9.999c5.523,0,9.999-4.478,9.999-9.999    V91.69C145.252,86.168,140.775,81.69,135.253,81.69z" data-original="#b6b6b6" class="active-path" data-old_color=" rgb(0, 0, 0)" fill="#b6b6b6"/>
	</g>
</g><g>
	<g>
		<path d="M501.961,167.16h-6.858c-5.523,0-9.999,4.478-9.999,9.999s4.477,9.999,9.999,9.999h6.858c5.523,0,9.999-4.478,9.999-9.999    S507.483,167.16,501.961,167.16z" data-original="#b6b6b6" class="active-path" data-old_color=" rgb(0, 0, 0)" fill="#b6b6b6"/>
	</g>
</g><g>
	<g>
		<path d="M453.444,167.16h-6.858c-5.523,0-9.999,4.478-9.999,9.999s4.477,9.999,9.999,9.999h6.858c5.523,0,9.999-4.478,9.999-9.999    S458.966,167.16,453.444,167.16z" data-original="#b6b6b6" class="active-path" data-old_color=" rgb(0, 0, 0)" fill="#b6b6b6"/>
	</g>
</g><g>
	<g>
		<path d="M474.273,187.99c-5.523,0-9.999,4.478-9.999,9.999v6.858c0,5.522,4.477,9.999,9.999,9.999    c5.523,0,9.999-4.478,9.999-9.999v-6.858C484.272,192.467,479.796,187.99,474.273,187.99z" data-original="#b6b6b6" class="active-path" data-old_color=" rgb(0, 0, 0)" fill="#b6b6b6"/>
	</g>
</g><g>
	<g>
		<path d="M474.273,139.473c-5.523,0-9.999,4.478-9.999,9.999v6.858c0,5.523,4.477,9.999,9.999,9.999    c5.523,0,9.999-4.478,9.999-9.999v-6.858C484.272,143.95,479.796,139.473,474.273,139.473z" data-original="#b6b6b6" class="active-path" data-old_color=" rgb(0, 0, 0)" fill="#b6b6b6"/>
	</g>
</g></g> </svg>
