<svg xmlns="http://www.w3.org/2000/svg" xmlns:xlink="http://www.w3.org/1999/xlink" viewBox="0 0 142.7 99.9"><defs><clipPath id="clip-path"><rect x="56.6" y="85.2" width="14.7" height="14.75" style="fill:none"/></clipPath><clipPath id="clip-path-2"><rect x="94.6" y="85.2" width="14.8" height="14.75" style="fill:none"/></clipPath><clipPath id="clip-path-3"><rect x="73.8" width="44.7" height="42.58" style="fill:none"/></clipPath><clipPath id="clip-path-4"><rect x="56.3" y="7.6" width="24.1" height="24.11" style="fill:none"/></clipPath><clipPath id="clip-path-5"><rect x="94.5" y="41.5" width="24" height="22.01" style="fill:none"/></clipPath></defs><title>MiepMiep</title><g style="isolation:isolate"><g id="Layer_1" data-name="Layer 1"><rect x="4.1" y="34.4" width="20.7" height="3.46" transform="translate(-21.5 21.1) rotate(-45.6)" style="fill:#8c8c8c"/><rect x="24.4" y="26.8" width="3.5" height="11.94" transform="translate(-15.5 28.5) rotate(-45.6)" style="fill:#8c8c8c"/><path d="M19.2,26.2a3.8,3.8,0,1,0,5.4-.1,3.8,3.8,0,0,0-5.4.1" style="fill:#333"/><path d="M20.3,26a2.2,2.2,0,1,0,3.2,0,2.2,2.2,0,0,0-3.2,0" style="fill:#666"/><path d="M7.7,41.5a0.3,0.3,0,0,0,.5,0l10-10.2a0.3,0.3,0,1,0-.5-0.5L7.7,41.1a0.3,0.3,0,0,0,0,.5" style="fill:#bfbfbf"/><path d="M0,36.4l0.7,3.4A4.2,4.2,0,0,1,5.7,43a4.2,4.2,0,0,1-.6,3.1A4.2,4.2,0,0,1,2.4,48l0.7,3.4A7.6,7.6,0,0,0,8,48.1,7.6,7.6,0,0,0,5.7,37.5,7.6,7.6,0,0,0,0,36.4" style="fill:#8c8c8c"/><path d="M1.5,36.8h0a0.3,0.3,0,0,0,.3.4c5.6,0.3,6,4.7,6,4.9A0.3,0.3,0,1,0,8.5,42c0-.1-0.5-5.2-6.6-5.5a0.3,0.3,0,0,0-.3.3" style="fill:#bfbfbf"/><path d="M36.7,32.9a10.9,10.9,0,1,0,0,21.7V32.9Z" style="fill:#333"/><path d="M27.8,45.3a0.7,0.7,0,0,0,.7-0.7c0-7.9,6.4-8.7,6.6-8.8a0.7,0.7,0,0,0-.2-1.4c-0.1,0-7.9,1-7.9,10.1a0.7,0.7,0,0,0,.7.7" style="fill:#8c8c8c"/><path d="M27.8,47.2a0.6,0.6,0,1,0,.6-0.6,0.6,0.6,0,0,0-.6.6" style="fill:#8c8c8c"/><rect x="135.7" y="43" width="3.5" height="20.75" style="fill:#8c8c8c"/><path d="M114.6,31.9a10.9,10.9,0,1,1,0,21.7V31.9Z" style="fill:#333"/><rect x="125.5" y="41" width="11.9" height="3.46" style="fill:#8c8c8c"/><path d="M141,42.9a3.8,3.8,0,1,1-3.8-3.8,3.8,3.8,0,0,1,3.8,3.8" style="fill:#333"/><path d="M140.4,42a2.2,2.2,0,1,1-2.2-2.2,2.2,2.2,0,0,1,2.2,2.2" style="fill:#666"/><path d="M141.9,73.2l-3.1-1.6a4.2,4.2,0,0,0-5-5.9,4.1,4.1,0,0,0-2.4,2.1l-3.1-1.6a7.6,7.6,0,0,1,13.6,7" style="fill:#8c8c8c"/><path d="M123.5,44.2a0.7,0.7,0,0,1-.7-0.7c0-7.9-6.4-8.7-6.6-8.8a0.7,0.7,0,0,1,.2-1.4c0.1,0,7.9,1,7.9,10.1a0.7,0.7,0,0,1-.7.7" style="fill:#8c8c8c"/><path d="M123.5,46.2a0.6,0.6,0,1,1-.6-0.6,0.6,0.6,0,0,1,.6.6" style="fill:#8c8c8c"/><path d="M138.5,62a0.3,0.3,0,0,1-.3-0.3V47.3a0.3,0.3,0,1,1,.7,0V61.6a0.3,0.3,0,0,1-.3.3" style="fill:#bfbfbf"/><path d="M141.9,71.7h-0.1a0.3,0.3,0,0,1-.3-0.4c1.2-5.4-2.9-7-3.1-7.1a0.3,0.3,0,0,1,.2-0.7c0.1,0,4.9,1.8,3.5,7.9a0.3,0.3,0,0,1-.3.3" style="fill:#bfbfbf"/><line x1="94.5" y1="58.2" x2="94.5" y2="86.7" style="fill:none;stroke:#8c8c8c;stroke-miterlimit:10;stroke-width:4px"/><path d="M98.5,73.3a4,4,0,1,1-4-4,4,4,0,0,1,4,4" style="fill:#333"/><path d="M97.8,72.3A2.3,2.3,0,1,1,95.5,70a2.3,2.3,0,0,1,2.3,2.3" style="fill:#666"/><line x1="57.3" y1="58.2" x2="57.3" y2="86.7" style="fill:none;stroke:#8c8c8c;stroke-miterlimit:10;stroke-width:4px"/><path d="M118.5,42a42,42,0,1,0-84,0h84Z" style="fill:#fc0019"/><rect x="34.5" y="41.9" width="84" height="21.59" style="fill:#333"/><path d="M71.3,99.9a14.8,14.8,0,0,0-29.5,0H71.3Z" style="fill:#333"/><g style="opacity:0.39999399999999996;mix-blend-mode:multiply"><g style="clip-path:url(#clip-path)"><path d="M71.3,99.9A14.8,14.8,0,0,0,56.6,85.2s7.7,2.2,6.4,14.8h8.3Z" style="fill:#333"/></g></g><path d="M109.3,99.9a14.8,14.8,0,1,0-29.5,0h29.5Z" style="fill:#333"/><g style="opacity:0.39999399999999996;mix-blend-mode:multiply"><g style="clip-path:url(#clip-path-2)"><path d="M109.3,99.9A14.8,14.8,0,0,0,94.6,85.2s7.7,2.2,6.4,14.8h8.3Z" style="fill:#333"/></g></g><g style="opacity:0.19999699999999998;mix-blend-mode:multiply"><g style="clip-path:url(#clip-path-3)"><path d="M73.8,0S97.2,15.8,94.3,42.4c0,0,24.2.4,24.2,0S118.4,1,73.8,0" style="fill:#333"/></g></g><path d="M95.4,27.7A19.1,19.1,0,1,1,76.3,8.6,19.1,19.1,0,0,1,95.4,27.7" style="fill:#fff"/><path d="M88.1,27.9A11.5,11.5,0,1,1,76.5,16.4,11.5,11.5,0,0,1,88.1,27.9"/><path d="M88.2,32.7a2.9,2.9,0,1,1-2.9-2.9,2.9,2.9,0,0,1,2.9,2.9" style="fill:#fff"/><g style="opacity:0.100006"><g style="clip-path:url(#clip-path-4)"><path d="M66.6,31.5A12.1,12.1,0,1,1,80.3,21.4,12.1,12.1,0,0,1,66.6,31.5" style="fill:#fff"/></g></g><line x1="35" y1="59.9" x2="118.3" y2="59.9" style="fill:none;stroke:#8c8c8c;stroke-miterlimit:10;stroke-width:0.75px"/><line x1="35" y1="57.8" x2="118.3" y2="57.8" style="fill:none;stroke:#8c8c8c;stroke-miterlimit:10;stroke-width:0.75px"/><line x1="35" y1="55.6" x2="118.3" y2="55.6" style="fill:none;stroke:#8c8c8c;stroke-miterlimit:10;stroke-width:0.75px"/><g style="opacity:0.39999399999999996;mix-blend-mode:multiply"><g style="clip-path:url(#clip-path-5)"><polygon points="94.5 41.9 94.5 63.5 118.5 63.5 118.5 41.5 94.5 41.9" style="fill:#333"/></g></g><path d="M61.3,73.3a4,4,0,1,1-4-4,4,4,0,0,1,4,4" style="fill:#333"/><path d="M60.6,72.3A2.3,2.3,0,1,1,58.2,70a2.3,2.3,0,0,1,2.3,2.3" style="fill:#666"/></g></g></svg>